<svg xmlns="http://www.w3.org/2000/svg" xmlns:xlink="http://www.w3.org/1999/xlink" width="500" zoomAndPan="magnify" viewBox="0 0 375 374.999991" height="500" preserveAspectRatio="xMidYMid meet" version="1.0"><defs><g/><clipPath id="afbef89d45"><path d="M 89.328125 139 L 184 139 L 184 191 L 89.328125 191 Z M 89.328125 139 " clip-rule="nonzero"/></clipPath><clipPath id="77a158cbe8"><path d="M 89.328125 128 L 285.828125 128 L 285.828125 225 L 89.328125 225 Z M 89.328125 128 " clip-rule="nonzero"/></clipPath></defs><g clip-path="url(#afbef89d45)"><path fill="#000000" d="M 183.308594 139.277344 L 89.328125 139.277344 L 89.328125 143.550781 L 179.035156 143.550781 L 179.035156 186.265625 L 89.328125 186.265625 L 89.328125 190.539062 L 183.308594 190.539062 Z M 183.308594 139.277344 " fill-opacity="1" fill-rule="nonzero"/></g><path fill="#000000" d="M 213.210938 152.09375 L 221.753906 152.09375 L 221.753906 156.363281 L 213.210938 156.363281 Z M 213.210938 152.09375 " fill-opacity="1" fill-rule="nonzero"/><path fill="#000000" d="M 204.664062 152.09375 L 208.9375 152.09375 L 208.9375 156.363281 L 204.664062 156.363281 Z M 204.664062 152.09375 " fill-opacity="1" fill-rule="nonzero"/><g clip-path="url(#77a158cbe8)"><path fill="#000000" d="M 281.558594 181.996094 L 251.65625 173.453125 L 247.382812 160.636719 L 243.113281 160.636719 L 226.023438 143.550781 L 196.121094 143.550781 L 196.121094 194.808594 L 191.851562 194.808594 L 191.851562 139.277344 C 191.851562 135.585938 189.621094 128.597656 181.171875 128.597656 L 181.171875 132.871094 C 187.199219 132.871094 187.566406 138.21875 187.578125 139.277344 L 187.578125 194.808594 L 174.765625 194.808594 L 174.765625 207.625 L 166.003906 207.625 C 164.960938 200.390625 158.792969 194.808594 151.269531 194.808594 C 143.746094 194.808594 137.578125 200.390625 136.535156 207.625 L 131.828125 207.625 C 130.785156 200.390625 124.617188 194.808594 117.09375 194.808594 C 109.574219 194.808594 103.40625 200.390625 102.363281 207.625 L 89.328125 207.625 L 89.328125 211.898438 L 102.363281 211.898438 C 103.40625 219.128906 109.570312 224.710938 117.09375 224.710938 C 124.621094 224.710938 130.785156 219.128906 131.828125 211.898438 L 136.535156 211.898438 C 137.578125 219.128906 143.746094 224.710938 151.269531 224.710938 C 158.792969 224.710938 164.960938 219.128906 166.003906 211.898438 L 174.765625 211.898438 L 174.765625 216.167969 L 221.753906 216.167969 L 221.753906 211.898438 L 239.058594 211.898438 C 240.101562 219.128906 246.269531 224.710938 253.789062 224.710938 C 261.3125 224.710938 267.480469 219.128906 268.523438 211.898438 L 285.828125 211.898438 L 285.828125 199.082031 L 281.558594 199.082031 Z M 117.09375 220.441406 C 111.203125 220.441406 106.414062 215.652344 106.414062 209.761719 C 106.414062 203.871094 111.203125 199.082031 117.09375 199.082031 C 122.984375 199.082031 127.773438 203.871094 127.773438 209.761719 C 127.773438 215.652344 122.984375 220.441406 117.09375 220.441406 Z M 151.269531 220.441406 C 145.378906 220.441406 140.589844 215.652344 140.589844 209.761719 C 140.589844 203.871094 145.378906 199.082031 151.269531 199.082031 C 157.160156 199.082031 161.949219 203.871094 161.949219 209.761719 C 161.949219 215.652344 157.160156 220.441406 151.269531 220.441406 Z M 244.304688 164.90625 L 247.148438 173.453125 L 226.023438 173.453125 L 226.023438 164.90625 Z M 208.9375 211.898438 L 179.035156 211.898438 L 179.035156 199.082031 L 208.9375 199.082031 Z M 217.480469 211.898438 L 213.210938 211.898438 L 213.210938 199.082031 L 217.480469 199.082031 Z M 253.789062 220.441406 C 247.898438 220.441406 243.113281 215.652344 243.113281 209.761719 C 243.113281 203.871094 247.898438 199.082031 253.789062 199.082031 C 259.679688 199.082031 264.46875 203.871094 264.46875 209.761719 C 264.46875 215.652344 259.679688 220.441406 253.789062 220.441406 Z M 277.285156 207.625 L 268.523438 207.625 C 267.480469 200.390625 261.3125 194.808594 253.789062 194.808594 C 246.269531 194.808594 240.101562 200.390625 239.058594 207.625 L 221.753906 207.625 L 221.753906 194.808594 L 200.394531 194.808594 L 200.394531 147.820312 L 224.257812 147.820312 L 237.070312 160.636719 L 221.753906 160.636719 L 221.753906 177.722656 L 251.058594 177.722656 L 277.285156 185.214844 Z M 277.285156 207.625 " fill-opacity="1" fill-rule="nonzero"/></g><path fill="#000000" d="M 106.414062 147.820312 L 110.6875 147.820312 L 110.6875 152.09375 L 106.414062 152.09375 Z M 106.414062 147.820312 " fill-opacity="1" fill-rule="nonzero"/><path fill="#000000" d="M 114.960938 147.820312 L 174.765625 147.820312 L 174.765625 152.09375 L 114.960938 152.09375 Z M 114.960938 147.820312 " fill-opacity="1" fill-rule="nonzero"/><path fill="#000000" d="M 123.503906 209.761719 C 123.503906 210.183594 123.460938 210.597656 123.378906 211.011719 C 123.296875 211.421875 123.175781 211.824219 123.015625 212.214844 C 122.855469 212.601562 122.65625 212.972656 122.421875 213.320312 C 122.1875 213.671875 121.921875 213.996094 121.625 214.292969 C 121.328125 214.589844 121.003906 214.855469 120.65625 215.089844 C 120.304688 215.324219 119.9375 215.519531 119.546875 215.679688 C 119.160156 215.84375 118.757812 215.964844 118.34375 216.046875 C 117.933594 216.128906 117.515625 216.167969 117.09375 216.167969 C 116.675781 216.167969 116.257812 216.128906 115.84375 216.046875 C 115.433594 215.964844 115.03125 215.84375 114.644531 215.679688 C 114.253906 215.519531 113.886719 215.324219 113.535156 215.089844 C 113.183594 214.855469 112.863281 214.589844 112.5625 214.292969 C 112.265625 213.996094 112 213.671875 111.765625 213.320312 C 111.535156 212.972656 111.335938 212.601562 111.175781 212.214844 C 111.015625 211.824219 110.894531 211.421875 110.8125 211.011719 C 110.730469 210.597656 110.6875 210.183594 110.6875 209.761719 C 110.6875 209.339844 110.730469 208.921875 110.8125 208.511719 C 110.894531 208.097656 111.015625 207.699219 111.175781 207.308594 C 111.335938 206.921875 111.535156 206.550781 111.765625 206.199219 C 112 205.851562 112.265625 205.527344 112.5625 205.230469 C 112.863281 204.933594 113.183594 204.667969 113.535156 204.433594 C 113.886719 204.199219 114.253906 204.003906 114.644531 203.839844 C 115.03125 203.679688 115.433594 203.558594 115.84375 203.476562 C 116.257812 203.394531 116.675781 203.351562 117.09375 203.351562 C 117.515625 203.351562 117.933594 203.394531 118.34375 203.476562 C 118.757812 203.558594 119.160156 203.679688 119.546875 203.839844 C 119.9375 204.003906 120.304688 204.199219 120.65625 204.433594 C 121.003906 204.667969 121.328125 204.933594 121.625 205.230469 C 121.921875 205.527344 122.1875 205.851562 122.421875 206.199219 C 122.65625 206.550781 122.855469 206.921875 123.015625 207.308594 C 123.175781 207.699219 123.296875 208.097656 123.378906 208.511719 C 123.460938 208.921875 123.503906 209.339844 123.503906 209.761719 Z M 123.503906 209.761719 " fill-opacity="1" fill-rule="nonzero"/><path fill="#000000" d="M 157.675781 209.761719 C 157.675781 210.183594 157.636719 210.597656 157.554688 211.011719 C 157.472656 211.421875 157.351562 211.824219 157.1875 212.214844 C 157.027344 212.601562 156.832031 212.972656 156.597656 213.320312 C 156.363281 213.671875 156.097656 213.996094 155.800781 214.292969 C 155.503906 214.589844 155.179688 214.855469 154.828125 215.089844 C 154.480469 215.324219 154.109375 215.519531 153.722656 215.679688 C 153.332031 215.84375 152.933594 215.964844 152.519531 216.046875 C 152.105469 216.128906 151.691406 216.167969 151.269531 216.167969 C 150.847656 216.167969 150.433594 216.128906 150.019531 216.046875 C 149.605469 215.964844 149.207031 215.84375 148.816406 215.679688 C 148.429688 215.519531 148.058594 215.324219 147.710938 215.089844 C 147.359375 214.855469 147.035156 214.589844 146.738281 214.292969 C 146.441406 213.996094 146.175781 213.671875 145.941406 213.320312 C 145.707031 212.972656 145.511719 212.601562 145.347656 212.214844 C 145.1875 211.824219 145.066406 211.421875 144.984375 211.011719 C 144.902344 210.597656 144.863281 210.183594 144.863281 209.761719 C 144.863281 209.339844 144.902344 208.921875 144.984375 208.511719 C 145.066406 208.097656 145.1875 207.699219 145.347656 207.308594 C 145.511719 206.921875 145.707031 206.550781 145.941406 206.199219 C 146.175781 205.851562 146.441406 205.527344 146.738281 205.230469 C 147.035156 204.933594 147.359375 204.667969 147.710938 204.433594 C 148.058594 204.199219 148.429688 204.003906 148.816406 203.839844 C 149.207031 203.679688 149.605469 203.558594 150.019531 203.476562 C 150.433594 203.394531 150.847656 203.351562 151.269531 203.351562 C 151.691406 203.351562 152.105469 203.394531 152.519531 203.476562 C 152.933594 203.558594 153.332031 203.679688 153.722656 203.839844 C 154.109375 204.003906 154.480469 204.199219 154.828125 204.433594 C 155.179688 204.667969 155.503906 204.933594 155.800781 205.230469 C 156.097656 205.527344 156.363281 205.851562 156.597656 206.199219 C 156.832031 206.550781 157.027344 206.921875 157.1875 207.308594 C 157.351562 207.699219 157.472656 208.097656 157.554688 208.511719 C 157.636719 208.921875 157.675781 209.339844 157.675781 209.761719 Z M 157.675781 209.761719 " fill-opacity="1" fill-rule="nonzero"/><path fill="#000000" d="M 260.199219 209.761719 C 260.199219 210.183594 260.15625 210.597656 260.074219 211.011719 C 259.992188 211.421875 259.871094 211.824219 259.710938 212.214844 C 259.550781 212.601562 259.351562 212.972656 259.117188 213.320312 C 258.886719 213.671875 258.621094 213.996094 258.320312 214.292969 C 258.023438 214.589844 257.699219 214.855469 257.351562 215.089844 C 257 215.324219 256.632812 215.519531 256.242188 215.679688 C 255.855469 215.84375 255.453125 215.964844 255.039062 216.046875 C 254.628906 216.128906 254.210938 216.167969 253.789062 216.167969 C 253.371094 216.167969 252.953125 216.128906 252.539062 216.046875 C 252.128906 215.964844 251.726562 215.84375 251.339844 215.679688 C 250.949219 215.519531 250.582031 215.324219 250.230469 215.089844 C 249.882812 214.855469 249.558594 214.589844 249.261719 214.292969 C 248.960938 213.996094 248.695312 213.671875 248.464844 213.320312 C 248.230469 212.972656 248.03125 212.601562 247.871094 212.214844 C 247.710938 211.824219 247.589844 211.421875 247.507812 211.011719 C 247.425781 210.597656 247.382812 210.183594 247.382812 209.761719 C 247.382812 209.339844 247.425781 208.921875 247.507812 208.511719 C 247.589844 208.097656 247.710938 207.699219 247.871094 207.308594 C 248.03125 206.921875 248.230469 206.550781 248.464844 206.199219 C 248.695312 205.851562 248.960938 205.527344 249.261719 205.230469 C 249.558594 204.933594 249.882812 204.667969 250.230469 204.433594 C 250.582031 204.199219 250.949219 204.003906 251.339844 203.839844 C 251.726562 203.679688 252.128906 203.558594 252.539062 203.476562 C 252.953125 203.394531 253.371094 203.351562 253.789062 203.351562 C 254.210938 203.351562 254.628906 203.394531 255.039062 203.476562 C 255.453125 203.558594 255.855469 203.679688 256.242188 203.839844 C 256.632812 204.003906 257 204.199219 257.351562 204.433594 C 257.699219 204.667969 258.023438 204.933594 258.320312 205.230469 C 258.621094 205.527344 258.886719 205.851562 259.117188 206.199219 C 259.351562 206.550781 259.550781 206.921875 259.710938 207.308594 C 259.871094 207.699219 259.992188 208.097656 260.074219 208.511719 C 260.15625 208.921875 260.199219 209.339844 260.199219 209.761719 Z M 260.199219 209.761719 " fill-opacity="1" fill-rule="nonzero"/><g fill="#000000" fill-opacity="1"><g transform="translate(71.382956, 244.085521)"><g><path d="M 8.730469 -14.921875 C 8.503906 -14.921875 8.375 -14.808594 8.320312 -14.585938 L 6.25 -5.296875 L 4.179688 -14.585938 C 4.121094 -14.808594 3.992188 -14.921875 3.769531 -14.921875 L 1.304688 -14.921875 C 1.0625 -14.921875 0.933594 -14.792969 0.933594 -14.550781 L 0.933594 -0.375 C 0.933594 -0.128906 1.0625 0 1.304688 0 L 3.023438 0 C 3.265625 0 3.394531 -0.128906 3.394531 -0.375 L 3.394531 -8.765625 L 3.523438 -8.765625 L 5.371094 -0.335938 C 5.429688 -0.113281 5.558594 0 5.78125 0 L 6.695312 0 C 6.921875 0 7.050781 -0.113281 7.105469 -0.335938 L 8.953125 -8.765625 L 9.082031 -8.765625 L 9.082031 -0.375 C 9.082031 -0.128906 9.214844 0 9.457031 0 L 11.191406 0 C 11.433594 0 11.566406 -0.128906 11.566406 -0.375 L 11.566406 -14.550781 C 11.566406 -14.792969 11.433594 -14.921875 11.191406 -14.921875 Z M 8.730469 -14.921875 "/></g></g></g><g fill="#000000" fill-opacity="1"><g transform="translate(89.770126, 244.085521)"><g><path d="M 9.921875 0 C 10.148438 0 10.222656 -0.113281 10.183594 -0.316406 L 7.089844 -14.660156 C 7.050781 -14.847656 6.9375 -14.921875 6.769531 -14.921875 L 4.179688 -14.921875 C 4.011719 -14.921875 3.898438 -14.847656 3.859375 -14.660156 L 0.765625 -0.316406 C 0.707031 -0.113281 0.800781 0 1.007812 0 L 3.003906 0 C 3.171875 0 3.265625 -0.09375 3.300781 -0.261719 L 3.804688 -2.984375 L 7.125 -2.984375 L 7.648438 -0.261719 C 7.683594 -0.09375 7.777344 0 7.945312 0 Z M 6.660156 -5.148438 L 4.269531 -5.148438 L 5.464844 -11.65625 Z M 6.660156 -5.148438 "/></g></g></g><g fill="#000000" fill-opacity="1"><g transform="translate(106.591149, 244.085521)"><g><path d="M 0.859375 -14.921875 C 0.671875 -14.921875 0.558594 -14.808594 0.558594 -14.625 L 0.558594 -12.757812 C 0.558594 -12.570312 0.671875 -12.460938 0.859375 -12.460938 L 3.023438 -12.460938 L 3.023438 -0.296875 C 3.023438 -0.09375 3.132812 0 3.320312 0 L 5.261719 0 C 5.464844 0 5.558594 -0.09375 5.558594 -0.296875 L 5.558594 -12.460938 L 7.722656 -12.460938 C 7.925781 -12.460938 8.019531 -12.570312 8.019531 -12.757812 L 8.019531 -14.625 C 8.019531 -14.808594 7.925781 -14.921875 7.722656 -14.921875 Z M 0.859375 -14.921875 "/></g></g></g><g fill="#000000" fill-opacity="1"><g transform="translate(121.062952, 244.085521)"><g><path d="M 0.859375 -14.921875 C 0.671875 -14.921875 0.558594 -14.808594 0.558594 -14.625 L 0.558594 -12.757812 C 0.558594 -12.570312 0.671875 -12.460938 0.859375 -12.460938 L 3.023438 -12.460938 L 3.023438 -0.296875 C 3.023438 -0.09375 3.132812 0 3.320312 0 L 5.261719 0 C 5.464844 0 5.558594 -0.09375 5.558594 -0.296875 L 5.558594 -12.460938 L 7.722656 -12.460938 C 7.925781 -12.460938 8.019531 -12.570312 8.019531 -12.757812 L 8.019531 -14.625 C 8.019531 -14.808594 7.925781 -14.921875 7.722656 -14.921875 Z M 0.859375 -14.921875 "/></g></g></g><g fill="#000000" fill-opacity="1"><g transform="translate(135.534754, 244.085521)"><g><path d="M 5.855469 -8.691406 L 3.46875 -8.691406 L 3.46875 -14.625 C 3.46875 -14.808594 3.359375 -14.921875 3.171875 -14.921875 L 1.25 -14.921875 C 1.027344 -14.921875 0.933594 -14.808594 0.933594 -14.625 L 0.933594 -0.296875 C 0.933594 -0.113281 1.027344 0 1.25 0 L 3.171875 0 C 3.359375 0 3.46875 -0.113281 3.46875 -0.296875 L 3.46875 -6.230469 L 5.855469 -6.230469 L 5.855469 -0.296875 C 5.855469 -0.113281 5.96875 0 6.15625 0 L 8.078125 0 C 8.300781 0 8.394531 -0.113281 8.394531 -0.296875 L 8.394531 -14.625 C 8.394531 -14.808594 8.300781 -14.921875 8.078125 -14.921875 L 6.15625 -14.921875 C 5.96875 -14.921875 5.855469 -14.808594 5.855469 -14.625 Z M 5.855469 -8.691406 "/></g></g></g><g fill="#000000" fill-opacity="1"><g transform="translate(150.752345, 244.085521)"><g><path d="M 8.375 -14.625 C 8.375 -14.808594 8.300781 -14.921875 8.078125 -14.921875 L 1.210938 -14.921875 C 1.042969 -14.921875 0.933594 -14.808594 0.933594 -14.625 L 0.933594 -0.296875 C 0.933594 -0.113281 1.042969 0 1.210938 0 L 8.078125 0 C 8.300781 0 8.375 -0.113281 8.375 -0.296875 L 8.375 -2.164062 C 8.375 -2.367188 8.300781 -2.460938 8.078125 -2.460938 L 3.414062 -2.460938 L 3.414062 -6.230469 L 6.976562 -6.230469 C 7.164062 -6.230469 7.273438 -6.34375 7.273438 -6.546875 L 7.273438 -8.394531 C 7.273438 -8.597656 7.164062 -8.710938 6.976562 -8.710938 L 3.414062 -8.710938 L 3.414062 -12.441406 L 8.078125 -12.441406 C 8.300781 -12.441406 8.375 -12.570312 8.375 -12.757812 Z M 8.375 -14.625 "/></g></g></g><g fill="#000000" fill-opacity="1"><g transform="translate(165.951294, 244.085521)"><g><path d="M 11.136719 -14.921875 C 10.910156 -14.921875 10.761719 -14.792969 10.742188 -14.566406 L 9.980469 -5.839844 L 9.886719 -5.839844 L 8.058594 -14.585938 C 8 -14.808594 7.871094 -14.921875 7.648438 -14.921875 L 6.527344 -14.921875 C 6.304688 -14.921875 6.175781 -14.808594 6.117188 -14.585938 L 4.269531 -5.839844 L 4.179688 -5.839844 L 3.449219 -14.566406 C 3.433594 -14.792969 3.28125 -14.921875 3.058594 -14.921875 L 1.285156 -14.921875 C 1.042969 -14.921875 0.914062 -14.773438 0.933594 -14.53125 L 2.460938 -0.355469 C 2.480469 -0.113281 2.613281 0 2.855469 0 L 4.71875 0 C 4.941406 0 5.074219 -0.113281 5.128906 -0.316406 L 7.089844 -8.765625 L 9.027344 -0.335938 C 9.082031 -0.113281 9.214844 0 9.4375 0 L 11.265625 0 C 11.507812 0 11.640625 -0.113281 11.65625 -0.355469 L 13.261719 -14.53125 C 13.28125 -14.773438 13.148438 -14.921875 12.90625 -14.921875 Z M 11.136719 -14.921875 "/></g></g></g><g fill="#000000" fill-opacity="1"><g transform="translate(186.035124, 244.085521)"><g/></g></g><g fill="#000000" fill-opacity="1"><g transform="translate(196.591566, 244.085521)"><g><path d="M 8.414062 -12.234375 C 8.414062 -13.988281 7.460938 -14.921875 5.707031 -14.921875 L 1.230469 -14.921875 C 1.042969 -14.921875 0.933594 -14.828125 0.933594 -14.625 L 0.933594 -0.296875 C 0.933594 -0.113281 1.042969 0 1.230469 0 L 5.707031 0 C 7.460938 0 8.414062 -0.933594 8.414062 -2.6875 L 8.414062 -6.117188 C 8.414062 -6.808594 7.910156 -7.332031 7.238281 -7.441406 L 7.238281 -7.480469 C 7.910156 -7.589844 8.414062 -8.113281 8.414062 -8.804688 Z M 5.929688 -9.417969 C 5.929688 -8.953125 5.671875 -8.691406 5.183594 -8.691406 L 3.488281 -8.691406 L 3.488281 -12.460938 L 5.183594 -12.460938 C 5.6875 -12.460938 5.929688 -12.199219 5.929688 -11.714844 Z M 5.929688 -3.207031 C 5.929688 -2.703125 5.671875 -2.460938 5.183594 -2.460938 L 3.488281 -2.460938 L 3.488281 -6.230469 L 5.183594 -6.230469 C 5.6875 -6.230469 5.929688 -5.96875 5.929688 -5.484375 Z M 5.929688 -3.207031 "/></g></g></g><g fill="#000000" fill-opacity="1"><g transform="translate(211.827794, 244.085521)"><g><path d="M 8.597656 -12.234375 C 8.597656 -13.988281 7.667969 -14.921875 5.914062 -14.921875 L 1.230469 -14.921875 C 1.042969 -14.921875 0.933594 -14.808594 0.933594 -14.625 L 0.933594 -0.296875 C 0.933594 -0.113281 1.042969 0 1.230469 0 L 3.171875 0 C 3.359375 0 3.46875 -0.113281 3.46875 -0.296875 L 3.46875 -5 L 4.757812 -5 L 6.007812 -0.261719 C 6.042969 -0.09375 6.136719 0 6.324219 0 L 8.261719 0 C 8.46875 0 8.582031 -0.113281 8.523438 -0.335938 L 7.238281 -5.222656 C 8.132812 -5.613281 8.597656 -6.433594 8.597656 -7.683594 Z M 3.46875 -7.460938 L 3.46875 -12.460938 L 5.316406 -12.460938 C 5.800781 -12.460938 6.0625 -12.199219 6.0625 -11.714844 L 6.0625 -8.207031 C 6.0625 -7.722656 5.800781 -7.460938 5.316406 -7.460938 Z M 3.46875 -7.460938 "/></g></g></g><g fill="#000000" fill-opacity="1"><g transform="translate(227.250469, 244.085521)"><g><path d="M 0.933594 -2.6875 C 0.933594 -0.933594 1.867188 0 3.617188 0 L 5.707031 0 C 7.460938 0 8.394531 -0.933594 8.394531 -2.6875 L 8.394531 -12.234375 C 8.394531 -13.988281 7.460938 -14.921875 5.707031 -14.921875 L 3.617188 -14.921875 C 1.867188 -14.921875 0.933594 -13.988281 0.933594 -12.234375 Z M 4.160156 -2.40625 C 3.675781 -2.40625 3.414062 -2.648438 3.414062 -3.152344 L 3.414062 -11.769531 C 3.414062 -12.253906 3.675781 -12.515625 4.160156 -12.515625 L 5.242188 -12.515625 C 5.726562 -12.515625 5.988281 -12.253906 5.988281 -11.769531 L 5.988281 -3.152344 C 5.988281 -2.648438 5.726562 -2.40625 5.242188 -2.40625 Z M 4.160156 -2.40625 "/></g></g></g><g fill="#000000" fill-opacity="1"><g transform="translate(242.468066, 244.085521)"><g><path d="M 3.617188 -14.921875 C 1.882812 -14.921875 0.933594 -13.988281 0.933594 -12.234375 L 0.933594 -7.835938 C 0.933594 -7.480469 1.101562 -7.253906 1.4375 -7.144531 L 5.855469 -5.6875 L 5.855469 -3.207031 C 5.855469 -2.703125 5.597656 -2.460938 5.109375 -2.460938 L 4.214844 -2.460938 C 3.75 -2.460938 3.46875 -2.703125 3.46875 -3.207031 L 3.46875 -4.644531 C 3.46875 -4.851562 3.375 -4.941406 3.171875 -4.941406 L 1.230469 -4.941406 C 1.042969 -4.941406 0.933594 -4.851562 0.933594 -4.644531 L 0.933594 -2.6875 C 0.933594 -0.933594 1.882812 0 3.617188 0 L 5.707031 0 C 7.460938 0 8.394531 -0.933594 8.394531 -2.6875 L 8.394531 -6.996094 C 8.394531 -7.347656 8.226562 -7.554688 7.910156 -7.683594 L 3.46875 -9.140625 L 3.46875 -11.714844 C 3.46875 -12.199219 3.75 -12.460938 4.214844 -12.460938 L 5.109375 -12.460938 C 5.613281 -12.460938 5.855469 -12.199219 5.855469 -11.714844 L 5.855469 -10.257812 C 5.855469 -10.074219 5.96875 -9.960938 6.15625 -9.960938 L 8.09375 -9.960938 C 8.300781 -9.960938 8.394531 -10.074219 8.394531 -10.257812 L 8.394531 -12.234375 C 8.394531 -13.988281 7.460938 -14.921875 5.707031 -14.921875 Z M 3.617188 -14.921875 "/></g></g></g><g fill="#000000" fill-opacity="1"><g transform="translate(257.685663, 244.085521)"><g/></g></g><g fill="#000000" fill-opacity="1"><g transform="translate(268.242105, 244.085521)"><g><path d="M 1.230469 -14.921875 C 1.027344 -14.921875 0.933594 -14.808594 0.933594 -14.625 L 0.933594 -0.296875 C 0.933594 -0.113281 1.027344 0 1.230469 0 L 3.171875 0 C 3.359375 0 3.46875 -0.113281 3.46875 -0.296875 L 3.46875 -14.625 C 3.46875 -14.808594 3.359375 -14.921875 3.171875 -14.921875 Z M 1.230469 -14.921875 "/></g></g></g><g fill="#000000" fill-opacity="1"><g transform="translate(278.537529, 244.085521)"><g><path d="M 6.660156 -14.921875 C 6.453125 -14.921875 6.359375 -14.808594 6.359375 -14.625 L 6.359375 -6.753906 L 6.25 -6.753906 L 3.414062 -14.679688 C 3.359375 -14.847656 3.246094 -14.921875 3.078125 -14.921875 L 1.230469 -14.921875 C 1.042969 -14.921875 0.933594 -14.808594 0.933594 -14.625 L 0.933594 -0.296875 C 0.933594 -0.113281 1.042969 0 1.230469 0 L 3.171875 0 C 3.375 0 3.46875 -0.113281 3.46875 -0.296875 L 3.46875 -8.207031 L 3.5625 -8.207031 L 6.417969 -0.242188 C 6.472656 -0.0742188 6.585938 0 6.753906 0 L 8.597656 0 C 8.785156 0 8.898438 -0.113281 8.898438 -0.296875 L 8.898438 -14.625 C 8.898438 -14.808594 8.785156 -14.921875 8.597656 -14.921875 Z M 6.660156 -14.921875 "/></g></g></g><g fill="#000000" fill-opacity="1"><g transform="translate(294.258529, 244.085521)"><g><path d="M 8.414062 -12.234375 C 8.414062 -13.988281 7.460938 -14.921875 5.726562 -14.921875 L 3.636719 -14.921875 C 1.882812 -14.921875 0.933594 -13.988281 0.933594 -12.234375 L 0.933594 -2.6875 C 0.933594 -0.933594 1.882812 0 3.636719 0 L 5.726562 0 C 7.460938 0 8.414062 -0.933594 8.414062 -2.6875 L 8.414062 -4.699219 C 8.414062 -4.886719 8.300781 -5 8.113281 -5 L 6.25 -5 C 6.042969 -5 5.949219 -4.886719 5.949219 -4.699219 L 5.949219 -3.207031 C 5.949219 -2.703125 5.6875 -2.460938 5.203125 -2.460938 L 4.234375 -2.460938 C 3.75 -2.460938 3.488281 -2.703125 3.488281 -3.207031 L 3.488281 -11.714844 C 3.488281 -12.199219 3.730469 -12.460938 4.234375 -12.460938 L 5.203125 -12.460938 C 5.6875 -12.460938 5.949219 -12.199219 5.949219 -11.714844 L 5.949219 -10.222656 C 5.949219 -10.035156 6.042969 -9.921875 6.25 -9.921875 L 8.113281 -9.921875 C 8.300781 -9.921875 8.414062 -10.035156 8.414062 -10.222656 Z M 8.414062 -12.234375 "/></g></g></g></svg>